<svg xmlns="http://www.w3.org/2000/svg" viewBox="0 0 1200 600" role="img" aria-label="Capillas velatorias en Maracaibo - Funeraria del Zulia">
  <defs>
    <linearGradient id="bg" x1="0" y1="0" x2="1" y2="1">
      <stop offset="0" stop-color="#1F4E79"/>
      <stop offset="1" stop-color="#163A5F"/>
    </linearGradient>
  </defs>
  <rect width="1200" height="600" fill="url(#bg)"/>
  <circle cx="600" cy="250" r="185" fill="#2F6DB3" opacity="0.25"/>
  <circle cx="600" cy="250" r="135" fill="#2F6DB3" opacity="0.20"/>
  <g transform="translate(600,250) scale(8.5) translate(-12,-12)" fill="#ffffff">
    <path d="M19 4H5c-1.11 0-2 .9-2 2v14c0 1.1.89 2 2 2h14c1.1 0 2-.9 2-2V6c0-1.1-.9-2-2-2zm0 16H5V8h14v12zM9 10h6v2H9v-2zm0 4h6v2H9v-2z"/>
  </g>
  <rect x="540" y="430" width="120" height="4" fill="#b8860b"/>
  <text x="600" y="498" text-anchor="middle" fill="#ffffff" font-family="Georgia, 'Times New Roman', serif" font-size="46" font-weight="bold">Capillas Velatorias</text>
  <text x="600" y="543" text-anchor="middle" fill="#C3DAEE" font-family="Arial, Helvetica, sans-serif" font-size="23">Salas climatizadas en Maracaibo</text>
</svg>
