<svg xmlns="http://www.w3.org/2000/svg" viewBox="0 0 1200 600" role="img" aria-label="Cremación en Maracaibo - Funeraria del Zulia">
  <defs>
    <linearGradient id="bg" x1="0" y1="0" x2="1" y2="1">
      <stop offset="0" stop-color="#1F4E79"/>
      <stop offset="1" stop-color="#163A5F"/>
    </linearGradient>
  </defs>
  <rect width="1200" height="600" fill="url(#bg)"/>
  <circle cx="600" cy="250" r="185" fill="#2F6DB3" opacity="0.25"/>
  <circle cx="600" cy="250" r="135" fill="#b8860b" opacity="0.18"/>
  <g transform="translate(600,250) scale(8.5) translate(-12,-12)" fill="#ffffff">
    <path d="M12.05 3c-1.92 0-3.66.79-4.95 2.05L5.68 3.63C7.29 2.01 9.53 1 12.05 1c5.52 0 10 4.48 10 10s-4.48 10-10 10c-2.53 0-4.77-1.01-6.38-2.63l1.42-1.42c1.29 1.26 3.03 2.05 4.95 2.05 3.86 0 7-3.14 7-7s-3.14-7-7-7z"/>
    <path d="M12 10.5c-1.38 0-2.5 1.12-2.5 2.5s1.12 2.5 2.5 2.5 2.5-1.12 2.5-2.5-1.12-2.5-2.5-2.5z"/>
  </g>
  <rect x="540" y="430" width="120" height="4" fill="#b8860b"/>
  <text x="600" y="498" text-anchor="middle" fill="#ffffff" font-family="Georgia, 'Times New Roman', serif" font-size="46" font-weight="bold">Cremación en Maracaibo</text>
  <text x="600" y="543" text-anchor="middle" fill="#C3DAEE" font-family="Arial, Helvetica, sans-serif" font-size="23">Crematorio propio · Estado Zulia</text>
</svg>
